# xmcd
#
# Track frame offsets: 
#        150
#        25353
#        47360
#        67297
#
# Disc length: 1417 seconds
#
# Revision: 0
# Processed by: cddbd v1.5.2PL0 Copyright (c) Steve Scherf et al.
# Submitted via: ExactAudioCopy v0.99pb5
#
DISCID=32058704
DTITLE=Chance Royal - For Sale By Owner
DYEAR=2000
DGENRE=Blues
TTITLE0=Mill Worker Blues
TTITLE1=Silvertown Blues
TTITLE2=Truth in Fantasy Finds A New You
TTITLE3=Why
EXTD=
EXTT0=
EXTT1=
EXTT2=
EXTT3=
PLAYORDER=
